ffmpeg started on 2025-06-06 at 16:51:30
Report written to "D:\Convert\FFMetrics\reports\psnr_report-6.txt"
Log level: 32
Command line:
ffmpeg -hide_banner -nostdin -i "G:\\\xc0\xed\xe8\xec\xe5\\\xce\xed\xe3\xee\xe8\xed\xe3\xe8\\!_36_\xce\xf1\xe5\xed\xfc_2024\\DreamCast\\\xcf\xeb\xee\xf5\xe0\xff \xef\xee\xe5\xe7\xe4\xea\xe0\\[DC] Acro Trip - 06_Telegram_HEVC.mkv" -i "G:\\\xc0\xed\xe8\xec\xe5\\\xce\xed\xe3\xee\xe8\xed\xe3\xe8\\!_36_\xce\xf1\xe5\xed\xfc_2024\\DreamCast\\\xcf\xeb\xee\xf5\xe0\xff \xef\xee\xe5\xe7\xe4\xea\xe0\\[DC] Acro Trip - 06_Telegram.mp4" -lavfi "[0:v]settb=AVTB,setpts=PTS-STARTPTS,format=pix_fmts=yuv420p10,fps=24000/1001,scale=1920:1080:flags=bicubic[main];[1:v]settb=AVTB,setpts=PTS-STARTPTS,format=pix_fmts=yuv420p,fps=24000/1001,scale=1920:1080:flags=bicubic[ref];[main][ref]psnr=eof_action=endall:stats_file='D\\:/Convert/FFMetrics/logs/psnr_logfile-6.txt'" -f null -
Input #0, matroska,webm, from 'G:\Аниме\Онгоинги\!_36_Осень_2024\DreamCast\Плохая поездка\[DC] Acro Trip - 06_Telegram_HEVC.mkv':
  Metadata:
    COMPATIBLE_BRANDS: isomiso2avc1mp41
    MAJOR_BRAND     : isom
    MINOR_VERSION   : 512
    ENCODER         : Lavf61.7.100
  Duration: 00:23:46.69, start: -0.021000, bitrate: 1328 kb/s
  Stream #0:0: Video: hevc (Main 10), yuv420p10le(tv, bt709, progressive), 1920x1080 [SAR 1:1 DAR 16:9], 23.98 fps, 23.98 tbr, 1k tbn (default)
      Metadata:
        HANDLER_NAME    : VideoHandler
        VENDOR_ID       : [0][0][0][0]
        ENCODER         : Lavc61.19.100 libx265
        BPS             : 1130875
        DURATION        : 00:23:46.591708333
        NUMBER_OF_FRAMES: 34204
        NUMBER_OF_BYTES : 201662020
        _STATISTICS_WRITING_APP: mkvpropedit v66.0.0 ('Josie') 64-bit
        _STATISTICS_WRITING_DATE_UTC: 2025-06-02 12:31:12
        _STATISTICS_TAGS: BPS DURATION NUMBER_OF_FRAMES NUMBER_OF_BYTES
  Stream #0:1: Audio: aac (LC), 48000 Hz, stereo, fltp (default)
      Metadata:
        HANDLER_NAME    : SoundHandler
        VENDOR_ID       : [0][0][0][0]
        ENCODER         : Lavc61.19.100 aac
        BPS             : 193636
        DURATION        : 00:23:46.688000000
        NUMBER_OF_FRAMES: 66877
        NUMBER_OF_BYTES : 34532419
        _STATISTICS_WRITING_APP: mkvpropedit v66.0.0 ('Josie') 64-bit
        _STATISTICS_WRITING_DATE_UTC: 2025-06-02 12:31:12
        _STATISTICS_TAGS: BPS DURATION NUMBER_OF_FRAMES NUMBER_OF_BYTES
Input #1, mov,mp4,m4a,3gp,3g2,mj2, from 'G:\Аниме\Онгоинги\!_36_Осень_2024\DreamCast\Плохая поездка\[DC] Acro Trip - 06_Telegram.mp4':
  Metadata:
    major_brand     : isom
    minor_version   : 512
    compatible_brands: isomiso2avc1mp41
    encoder         : Lavf61.1.100
  Duration: 00:23:46.66, start: 0.000000, bitrate: 3854 kb/s
  Stream #1:0[0x1](und): Video: h264 (High) (avc1 / 0x31637661), yuv420p(tv, bt709, progressive), 1920x1080 [SAR 1:1 DAR 16:9], 3706 kb/s, 23.98 fps, 23.98 tbr, 24k tbn (default)
      Metadata:
        handler_name    : VideoHandler
        vendor_id       : [0][0][0][0]
        encoder         : Lavc61.3.100 h264_qsv
  Stream #1:1[0x2](und): Audio: aac (HE-AACv2) (mp4a / 0x6134706D), 48000 Hz, stereo, fltp, 144 kb/s (default)
      Metadata:
        handler_name    : SoundHandler
        vendor_id       : [0][0][0][0]
Stream mapping:
  Stream #0:0 (hevc) -> settb:default
  Stream #1:0 (h264) -> settb:default
  psnr:default -> Stream #0:0 (wrapped_avframe)
  Stream #0:1 -> #0:1 (aac (native) -> pcm_s16le (native))
Output #0, null, to 'pipe:':
  Metadata:
    COMPATIBLE_BRANDS: isomiso2avc1mp41
    MAJOR_BRAND     : isom
    MINOR_VERSION   : 512
    encoder         : Lavf61.7.100
  Stream #0:0: Video: wrapped_avframe, yuv420p10le(tv, bt709, progressive), 1920x1080 [SAR 1:1 DAR 16:9], q=2-31, 200 kb/s, 23.98 fps, 23.98 tbn
      Metadata:
        encoder         : Lavc61.19.100 wrapped_avframe
  Stream #0:1: Audio: pcm_s16le, 48000 Hz, stereo, s16, 1536 kb/s (default)
      Metadata:
        HANDLER_NAME    : SoundHandler
        VENDOR_ID       : [0][0][0][0]
        _STATISTICS_TAGS: BPS DURATION NUMBER_OF_FRAMES NUMBER_OF_BYTES
        BPS             : 193636
        DURATION        : 00:23:46.688000000
        NUMBER_OF_FRAMES: 66877
        NUMBER_OF_BYTES : 34532419
        _STATISTICS_WRITING_APP: mkvpropedit v66.0.0 ('Josie') 64-bit
        _STATISTICS_WRITING_DATE_UTC: 2025-06-02 12:31:12
        encoder         : Lavc61.19.100 pcm_s16le
frame=  170 fps=0.0 q=-0.0 size=N/A time=00:00:07.09 bitrate=N/A speed=13.7x    frame=  398 fps=388 q=-0.0 size=N/A time=00:00:16.59 bitrate=N/A speed=16.2x    frame=  595 fps=384 q=-0.0 size=N/A time=00:00:24.81 bitrate=N/A speed=  16x    frame=  808 fps=391 q=-0.0 size=N/A time=00:00:33.70 bitrate=N/A speed=16.3x    frame= 1054 fps=409 q=-0.0 size=N/A time=00:00:43.96 bitrate=N/A speed=17.1x    frame= 1309 fps=424 q=-0.0 size=N/A time=00:00:54.59 bitrate=N/A speed=17.7x    frame= 1553 fps=430 q=-0.0 size=N/A time=00:01:04.77 bitrate=N/A speed=17.9x    frame= 1806 fps=439 q=-0.0 size=N/A time=00:01:15.32 bitrate=N/A speed=18.3x    frame= 2025 fps=436 q=-0.0 size=N/A time=00:01:24.45 bitrate=N/A speed=18.2x    frame= 2274 fps=441 q=-0.0 size=N/A time=00:01:34.84 bitrate=N/A speed=18.4x    frame= 2520 fps=445 q=-0.0 size=N/A time=00:01:45.10 bitrate=N/A speed=18.6x    frame= 2785 fps=450 q=-0.0 size=N/A time=00:01:56.15 bitrate=N/A speed=18.8x    frame= 3012 fps=450 q=-0.0 size=N/A time=00:02:05.62 bitrate=N/A speed=18.8x    frame= 3273 fps=454 q=-0.0 size=N/A time=00:02:16.51 bitrate=N/A speed=18.9x    frame= 3523 fps=455 q=-0.0 size=N/A time=00:02:26.93 bitrate=N/A speed=  19x    frame= 3756 fps=456 q=-0.0 size=N/A time=00:02:36.65 bitrate=N/A speed=  19x    frame= 4003 fps=457 q=-0.0 size=N/A time=00:02:46.95 bitrate=N/A speed=  19x    frame= 4225 fps=456 q=-0.0 size=N/A time=00:02:56.21 bitrate=N/A speed=  19x    frame= 4483 fps=458 q=-0.0 size=N/A time=00:03:06.97 bitrate=N/A speed=19.1x    frame= 4737 fps=460 q=-0.0 size=N/A time=00:03:17.57 bitrate=N/A speed=19.2x    frame= 4971 fps=459 q=-0.0 size=N/A time=00:03:27.33 bitrate=N/A speed=19.2x    frame= 5201 fps=458 q=-0.0 size=N/A time=00:03:36.92 bitrate=N/A speed=19.1x    frame= 5386 fps=454 q=-0.0 size=N/A time=00:03:44.64 bitrate=N/A speed=18.9x    frame= 5582 fps=451 q=-0.0 size=N/A time=00:03:52.81 bitrate=N/A speed=18.8x    frame= 5817 fps=451 q=-0.0 size=N/A time=00:04:02.61 bitrate=N/A speed=18.8x    frame= 6029 fps=450 q=-0.0 size=N/A time=00:04:11.45 bitrate=N/A speed=18.8x    frame= 6211 fps=446 q=-0.0 size=N/A time=00:04:19.05 bitrate=N/A speed=18.6x    frame= 6426 fps=445 q=-0.0 size=N/A time=00:04:28.01 bitrate=N/A speed=18.6x    frame= 6625 fps=443 q=-0.0 size=N/A time=00:04:36.31 bitrate=N/A speed=18.5x    frame= 6764 fps=437 q=-0.0 size=N/A time=00:04:42.11 bitrate=N/A speed=18.2x    frame= 6938 fps=434 q=-0.0 size=N/A time=00:04:49.37 bitrate=N/A speed=18.1x    frame= 7102 fps=430 q=-0.0 size=N/A time=00:04:56.21 bitrate=N/A speed=  18x    frame= 7271 fps=427 q=-0.0 size=N/A time=00:05:03.26 bitrate=N/A speed=17.8x    frame= 7480 fps=427 q=-0.0 size=N/A time=00:05:11.97 bitrate=N/A speed=17.8x    frame= 7742 fps=429 q=-0.0 size=N/A time=00:05:22.90 bitrate=N/A speed=17.9x    frame= 7988 fps=430 q=-0.0 size=N/A time=00:05:33.16 bitrate=N/A speed=  18x    frame= 8214 fps=430 q=-0.0 size=N/A time=00:05:42.59 bitrate=N/A speed=  18x    frame= 8459 fps=432 q=-0.0 size=N/A time=00:05:52.81 bitrate=N/A speed=  18x    frame= 8731 fps=434 q=-0.0 size=N/A time=00:06:04.15 bitrate=N/A speed=18.1x    frame= 8976 fps=435 q=-0.0 size=N/A time=00:06:14.37 bitrate=N/A speed=18.1x    frame= 9239 fps=437 q=-0.0 size=N/A time=00:06:25.34 bitrate=N/A speed=18.2x    frame= 9518 fps=439 q=-0.0 size=N/A time=00:06:36.97 bitrate=N/A speed=18.3x    frame= 9782 fps=441 q=-0.0 size=N/A time=00:06:47.99 bitrate=N/A speed=18.4x    frame=10067 fps=444 q=-0.0 size=N/A time=00:06:59.87 bitrate=N/A speed=18.5x    frame=10283 fps=443 q=-0.0 size=N/A time=00:07:08.88 bitrate=N/A speed=18.5x    frame=10462 fps=441 q=-0.0 size=N/A time=00:07:16.35 bitrate=N/A speed=18.4x    frame=10716 fps=442 q=-0.0 size=N/A time=00:07:26.94 bitrate=N/A speed=18.4x    frame=10957 fps=443 q=-0.0 size=N/A time=00:07:36.99 bitrate=N/A speed=18.5x    frame=11220 fps=444 q=-0.0 size=N/A time=00:07:47.96 bitrate=N/A speed=18.5x    frame=11478 fps=445 q=-0.0 size=N/A time=00:07:58.72 bitrate=N/A speed=18.6x    frame=11652 fps=443 q=-0.0 size=N/A time=00:08:05.98 bitrate=N/A speed=18.5x    frame=11860 fps=442 q=-0.0 size=N/A time=00:08:14.66 bitrate=N/A speed=18.4x    frame=12076 fps=442 q=-0.0 size=N/A time=00:08:23.66 bitrate=N/A speed=18.4x    frame=12287 fps=441 q=-0.0 size=N/A time=00:08:32.47 bitrate=N/A speed=18.4x    frame=12504 fps=441 q=-0.0 size=N/A time=00:08:41.52 bitrate=N/A speed=18.4x    frame=12715 fps=440 q=-0.0 size=N/A time=00:08:50.32 bitrate=N/A speed=18.4x    frame=12946 fps=440 q=-0.0 size=N/A time=00:08:59.95 bitrate=N/A speed=18.4x    frame=13197 fps=441 q=-0.0 size=N/A time=00:09:10.42 bitrate=N/A speed=18.4x    frame=13454 fps=442 q=-0.0 size=N/A time=00:09:21.14 bitrate=N/A speed=18.4x    frame=13710 fps=443 q=-0.0 size=N/A time=00:09:31.82 bitrate=N/A speed=18.5x    frame=13974 fps=444 q=-0.0 size=N/A time=00:09:42.83 bitrate=N/A speed=18.5x    frame=14224 fps=445 q=-0.0 size=N/A time=00:09:53.25 bitrate=N/A speed=18.5x    frame=14444 fps=444 q=-0.0 size=N/A time=00:10:02.43 bitrate=N/A speed=18.5x    frame=14684 fps=445 q=-0.0 size=N/A time=00:10:12.44 bitrate=N/A speed=18.6x    frame=14910 fps=445 q=-0.0 size=N/A time=00:10:21.87 bitrate=N/A speed=18.5x    frame=15151 fps=445 q=-0.0 size=N/A time=00:10:31.92 bitrate=N/A speed=18.6x    frame=15379 fps=445 q=-0.0 size=N/A time=00:10:41.43 bitrate=N/A speed=18.6x    frame=15555 fps=443 q=-0.0 size=N/A time=00:10:48.77 bitrate=N/A speed=18.5x    frame=15792 fps=444 q=-0.0 size=N/A time=00:10:58.65 bitrate=N/A speed=18.5x    frame=16030 fps=444 q=-0.0 size=N/A time=00:11:08.58 bitrate=N/A speed=18.5x    frame=16288 fps=445 q=-0.0 size=N/A time=00:11:19.34 bitrate=N/A speed=18.6x    frame=16555 fps=446 q=-0.0 size=N/A time=00:11:30.48 bitrate=N/A speed=18.6x    frame=16787 fps=446 q=-0.0 size=N/A time=00:11:40.15 bitrate=N/A speed=18.6x    frame=17048 fps=447 q=-0.0 size=N/A time=00:11:51.04 bitrate=N/A speed=18.6x    frame=17315 fps=448 q=-0.0 size=N/A time=00:12:02.17 bitrate=N/A speed=18.7x    frame=17538 fps=447 q=-0.0 size=N/A time=00:12:11.48 bitrate=N/A speed=18.7x    frame=17758 fps=447 q=-0.0 size=N/A time=00:12:20.65 bitrate=N/A speed=18.6x    frame=17985 fps=447 q=-0.0 size=N/A time=00:12:30.12 bitrate=N/A speed=18.6x    frame=18205 fps=447 q=-0.0 size=N/A time=00:12:39.30 bitrate=N/A speed=18.6x    frame=18483 fps=448 q=-0.0 size=N/A time=00:12:50.89 bitrate=N/A speed=18.7x    frame=18770 fps=449 q=-0.0 size=N/A time=00:13:02.86 bitrate=N/A speed=18.7x    frame=19048 fps=450 q=-0.0 size=N/A time=00:13:14.46 bitrate=N/A speed=18.8x    frame=19293 fps=451 q=-0.0 size=N/A time=00:13:24.67 bitrate=N/A speed=18.8x    frame=19587 fps=452 q=-0.0 size=N/A time=00:13:36.94 bitrate=N/A speed=18.9x    frame=19842 fps=453 q=-0.0 size=N/A time=00:13:47.57 bitrate=N/A speed=18.9x    frame=20089 fps=453 q=-0.0 size=N/A time=00:13:57.87 bitrate=N/A speed=18.9x    frame=20323 fps=453 q=-0.0 size=N/A time=00:14:07.63 bitrate=N/A speed=18.9x    frame=20578 fps=453 q=-0.0 size=N/A time=00:14:18.27 bitrate=N/A speed=18.9x    frame=20831 fps=454 q=-0.0 size=N/A time=00:14:28.82 bitrate=N/A speed=18.9x    frame=21033 fps=453 q=-0.0 size=N/A time=00:14:37.25 bitrate=N/A speed=18.9x    frame=21285 fps=454 q=-0.0 size=N/A time=00:14:47.76 bitrate=N/A speed=18.9x    frame=21559 fps=454 q=-0.0 size=N/A time=00:14:59.18 bitrate=N/A speed=18.9x    frame=21774 fps=454 q=-0.0 size=N/A time=00:15:08.15 bitrate=N/A speed=18.9x    frame=22004 fps=454 q=-0.0 size=N/A time=00:15:17.75 bitrate=N/A speed=18.9x    frame=22262 fps=454 q=-0.0 size=N/A time=00:15:28.51 bitrate=N/A speed=18.9x    frame=22506 fps=455 q=-0.0 size=N/A time=00:15:38.68 bitrate=N/A speed=  19x    frame=22745 fps=455 q=-0.0 size=N/A time=00:15:48.65 bitrate=N/A speed=  19x    frame=23004 fps=455 q=-0.0 size=N/A time=00:15:59.45 bitrate=N/A speed=  19x    frame=23270 fps=456 q=-0.0 size=N/A time=00:16:10.55 bitrate=N/A speed=  19x    frame=23511 fps=456 q=-0.0 size=N/A time=00:16:20.60 bitrate=N/A speed=  19x    frame=23769 fps=456 q=-0.0 size=N/A time=00:16:31.36 bitrate=N/A speed=  19x    frame=24041 fps=457 q=-0.0 size=N/A time=00:16:42.71 bitrate=N/A speed=19.1x    frame=24313 fps=458 q=-0.0 size=N/A time=00:16:54.05 bitrate=N/A speed=19.1x    frame=24542 fps=458 q=-0.0 size=N/A time=00:17:03.60 bitrate=N/A speed=19.1x    frame=24762 fps=457 q=-0.0 size=N/A time=00:17:12.78 bitrate=N/A speed=19.1x    frame=25019 fps=458 q=-0.0 size=N/A time=00:17:23.50 bitrate=N/A speed=19.1x    frame=25250 fps=458 q=-0.0 size=N/A time=00:17:33.13 bitrate=N/A speed=19.1x    frame=25466 fps=457 q=-0.0 size=N/A time=00:17:42.14 bitrate=N/A speed=19.1x    frame=25698 fps=457 q=-0.0 size=N/A time=00:17:51.82 bitrate=N/A speed=19.1x    frame=25945 fps=457 q=-0.0 size=N/A time=00:18:02.12 bitrate=N/A speed=19.1x    frame=26168 fps=457 q=-0.0 size=N/A time=00:18:11.42 bitrate=N/A speed=19.1x    frame=26417 fps=457 q=-0.0 size=N/A time=00:18:21.80 bitrate=N/A speed=19.1x    frame=26693 fps=458 q=-0.0 size=N/A time=00:18:33.32 bitrate=N/A speed=19.1x    frame=26975 fps=459 q=-0.0 size=N/A time=00:18:45.08 bitrate=N/A speed=19.1x    frame=27224 fps=459 q=-0.0 size=N/A time=00:18:55.46 bitrate=N/A speed=19.1x    frame=27477 fps=459 q=-0.0 size=N/A time=00:19:06.01 bitrate=N/A speed=19.2x    frame=27688 fps=459 q=-0.0 size=N/A time=00:19:14.82 bitrate=N/A speed=19.1x    frame=27937 fps=459 q=-0.0 size=N/A time=00:19:25.20 bitrate=N/A speed=19.1x    frame=28224 fps=460 q=-0.0 size=N/A time=00:19:37.17 bitrate=N/A speed=19.2x    frame=28457 fps=460 q=-0.0 size=N/A time=00:19:46.89 bitrate=N/A speed=19.2x    frame=28661 fps=459 q=-0.0 size=N/A time=00:19:55.40 bitrate=N/A speed=19.2x    frame=28929 fps=460 q=-0.0 size=N/A time=00:20:06.58 bitrate=N/A speed=19.2x    frame=29186 fps=460 q=-0.0 size=N/A time=00:20:17.29 bitrate=N/A speed=19.2x    frame=29411 fps=460 q=-0.0 size=N/A time=00:20:26.68 bitrate=N/A speed=19.2x    frame=29654 fps=460 q=-0.0 size=N/A time=00:20:36.81 bitrate=N/A speed=19.2x    frame=29908 fps=460 q=-0.0 size=N/A time=00:20:47.41 bitrate=N/A speed=19.2x    frame=30133 fps=460 q=-0.0 size=N/A time=00:20:56.79 bitrate=N/A speed=19.2x    frame=30358 fps=460 q=-0.0 size=N/A time=00:21:06.18 bitrate=N/A speed=19.2x    frame=30584 fps=460 q=-0.0 size=N/A time=00:21:15.60 bitrate=N/A speed=19.2x    frame=30825 fps=460 q=-0.0 size=N/A time=00:21:25.65 bitrate=N/A speed=19.2x    frame=31098 fps=460 q=-0.0 size=N/A time=00:21:37.04 bitrate=N/A speed=19.2x    frame=31340 fps=460 q=-0.0 size=N/A time=00:21:47.13 bitrate=N/A speed=19.2x    frame=31517 fps=459 q=-0.0 size=N/A time=00:21:54.52 bitrate=N/A speed=19.2x    frame=31726 fps=459 q=-0.0 size=N/A time=00:22:03.23 bitrate=N/A speed=19.1x    frame=31959 fps=459 q=-0.0 size=N/A time=00:22:12.95 bitrate=N/A speed=19.1x    frame=32181 fps=459 q=-0.0 size=N/A time=00:22:22.21 bitrate=N/A speed=19.1x    frame=32409 fps=459 q=-0.0 size=N/A time=00:22:31.72 bitrate=N/A speed=19.1x    frame=32629 fps=458 q=-0.0 size=N/A time=00:22:40.90 bitrate=N/A speed=19.1x    frame=32888 fps=459 q=-0.0 size=N/A time=00:22:51.70 bitrate=N/A speed=19.1x    frame=33143 fps=459 q=-0.0 size=N/A time=00:23:02.33 bitrate=N/A speed=19.1x    frame=33378 fps=459 q=-0.0 size=N/A time=00:23:12.14 bitrate=N/A speed=19.1x    frame=33584 fps=458 q=-0.0 size=N/A time=00:23:20.73 bitrate=N/A speed=19.1x    frame=33834 fps=459 q=-0.0 size=N/A time=00:23:31.15 bitrate=N/A speed=19.1x    frame=34043 fps=458 q=-0.0 size=N/A time=00:23:39.87 bitrate=N/A speed=19.1x    [Parsed_psnr_10 @ 000001c20b6dabc0] PSNR y:48.463816 u:49.734689 v:49.614736 average:48.831057 min:40.581958 max:inf
[out#0/null @ 000001c20b835e00] video:14697KiB audio:267508KiB subtitle:0KiB other streams:0KiB global headers:0KiB muxing overhead: unknown
frame=34204 fps=459 q=-0.0 Lsize=N/A time=00:23:46.59 bitrate=N/A speed=19.1x    
